<svg width="350" height="250" viewBox="0 0 350 250" xmlns="http://www.w3.org/2000/svg">
  <path d="M 50 220 L 300 220" stroke="black" fill="none" />
  <path d="M 100 250 L 100 50" stroke="black" fill="none" />
  
  <path d="M 100 220 C 180 220 190 200 200 50" stroke="black" fill="none" />
  
  <text x="310" y="230" font-family="Arial" font-size="12">V<sub>D</sub>(V)</text>
  <text x="110" y="40" font-family="Arial" font-size="12">i<sub>D</sub>(mA)</text>

  <line x1="95" y1="200" x2="105" y2="200" stroke="black" />
  <text x="80" y="205" font-family="Arial" font-size="10">10</text>
  <line x1="95" y1="160" x2="105" y2="160" stroke="black" />
  <text x="80" y="165" font-family="Arial" font-size="10">15</text>
  <line x1="95" y1="120" x2="105" y2="120" stroke="black" />
  <text x="80" y="125" font-family="Arial" font-size="10">20</text>
  <line x1="95" y1="80" x2="105" y2="80" stroke="black" />
  <text x="80" y="85" font-family="Arial" font-size="10">25</text>
  <line x1="95" y1="40" x2="105" y2="40" stroke="black" />
  <text x="80" y="45" font-family="Arial" font-size="10">30</text>
  
  <line x1="120" y1="220" x2="120" y2="225" stroke="black" />
  <text x="115" y="235" font-family="Arial" font-size="10">0.1</text>
  <line x1="140" y1="220" x2="140" y2="225" stroke="black" />
  <text x="135" y="235" font-family="Arial" font-size="10">0.2</text>
  <line x1="160" y1="220" x2="160" y2="225" stroke="black" />
  <text x="155" y="235" font-family="Arial" font-size="10">0.3</text>
  <line x1="180" y1="220" x2="180" y2="225" stroke="black" />
  <text x="175" y="235" font-family="Arial" font-size="10">0.4</text>
  <line x1="200" y1="220" x2="200" y2="225" stroke="black" />
  <text x="195" y="235" font-family="Arial" font-size="10">0.5</text>
  <line x1="220" y1="220" x2="220" y2="225" stroke="black" />
  <text x="215" y="235" font-family="Arial" font-size="10">0.6</text>
  
  <line x1="250" y1="220" x2="250" y2="225" stroke="black" />
  <text x="240" y="235" font-family="Arial" font-size="10">0.78</text>
  <line x1="260" y1="220" x2="260" y2="225" stroke="black" />
  <text x="255" y="235" font-family="Arial" font-size="10">0.8</text>
  <line x1="270" y1="220" x2="270" y2="225" stroke="black" />
  <text x="265" y="235" font-family="Arial" font-size="10">0.9</text>
  <line x1="290" y1="220" x2="290" y2="225" stroke="black" />
  <text x="285" y="235" font-family="Arial" font-size="10">1</text>
  
  <text x="95" y="235" font-family="Arial" font-size="10">0</text>
  
  <line x1="100" y1="40" x2="198" y2="40" stroke="black" stroke-dasharray="4" />
  <line x1="198" y1="40" x2="198" y2="220" stroke="black" stroke-dasharray="4" />
  
  <line x1="100" y1="80" x2="195" y2="80" stroke="black" stroke-dasharray="4" />
  
  <line x1="100" y1="120" x2="192" y2="120" stroke="black" stroke-dasharray="4" />
  <line x1="192" y1="120" x2="192" y2="220" stroke="black" stroke-dasharray="4" />
  
  <circle cx="198" cy="40" r="2" fill="black"/>
  <circle cx="195" cy="80" r="2" fill="black"/>
  <circle cx="192" cy="120" r="2" fill="black"/>
  
  <path d="M 205 40 L 200 40 L 200 120 L 205 120" stroke="black" fill="none" />
  <text x="210" y="85" font-family="Arial" font-size="10">&#916;i<sub>d</sub></text>

  <path d="M 192 130 L 192 125 L 198 125 L 198 130" stroke="black" fill="none" />
  <text x="200" y="140" font-family="Arial" font-size="10">&#916;v<sub>d</sub></text>

</svg>