<svg width="350" height="250" viewBox="0 0 350 250" xmlns="http://www.w3.org/2000/svg">
  <path d="M 50 220 L 300 220" stroke="black" fill="none" />
  <path d="M 120 250 L 120 50" stroke="black" fill="none" />
  
  <path d="M 50 220 C 150 220 180 220 190 50" stroke="black" fill="none" />
  
  <text x="310" y="230" font-family="Arial" font-size="12">V<sub>D</sub>(V)</text>
  <text x="130" y="40" font-family="Arial" font-size="12">I<sub>D</sub>(mA)</text>

  <line x1="115" y1="200" x2="125" y2="200" stroke="black" />
  <text x="100" y="205" font-family="Arial" font-size="10">2</text>
  <line x1="115" y1="180" x2="125" y2="180" stroke="black" />
  <text x="100" y="185" font-family="Arial" font-size="10">5</text>
  <line x1="115" y1="130" x2="125" y2="130" stroke="black" />
  <text x="95" y="135" font-family="Arial" font-size="10">10</text>
  <line x1="115" y1="90" x2="125" y2="90" stroke="black" />
  <text x="95" y="95" font-family="Arial" font-size="10">15</text>
  <line x1="115" y1="70" x2="125" y2="70" stroke="black" />
  <text x="95" y="75" font-family="Arial" font-size="10">17</text>
  <line x1="115" y1="50" x2="125" y2="50" stroke="black" />
  <text x="95" y="55" font-family="Arial" font-size="10">20</text>
  
  <line x1="130" y1="220" x2="130" y2="225" stroke="black" />
  <text x="125" y="235" font-family="Arial" font-size="10">0.1</text>
  <line x1="145" y1="220" x2="145" y2="225" stroke="black" />
  <text x="140" y="235" font-family="Arial" font-size="10">0.2</text>
  <line x1="160" y1="220" x2="160" y2="225" stroke="black" />
  <text x="155" y="235" font-family="Arial" font-size="10">0.3</text>
  <line x1="175" y1="220" x2="175" y2="225" stroke="black" />
  <text x="170" y="235" font-family="Arial" font-size="10">0.4</text>
  <line x1="190" y1="220" x2="190" y2="225" stroke="black" />
  <text x="185" y="235" font-family="Arial" font-size="10">0.5</text>
  <line x1="205" y1="220" x2="205" y2="225" stroke="black" />
  <text x="200" y="235" font-family="Arial" font-size="10">0.6</text>
  <line x1="220" y1="220" x2="220" y2="225" stroke="black" />
  <text x="215" y="235" font-family="Arial" font-size="10">0.7</text>
  <line x1="235" y1="220" x2="235" y2="225" stroke="black" />
  <text x="230" y="235" font-family="Arial" font-size="10">0.8</text>
  <line x1="250" y1="220" x2="250" y2="225" stroke="black" />
  <text x="245" y="235" font-family="Arial" font-size="10">0.9</text>
  <line x1="265" y1="220" x2="265" y2="225" stroke="black" />
  <text x="260" y="235" font-family="Arial" font-size="10">1</text>
  
  <text x="115" y="235" font-family="Arial" font-size="10">0</text>
  
  <line x1="120" y1="70" x2="185" y2="70" stroke="black" stroke-dasharray="4" />
  <line x1="185" y1="70" x2="185" y2="220" stroke="black" stroke-dasharray="4" />
  
  <line x1="120" y1="200" x2="175" y2="200" stroke="black" stroke-dasharray="4" />
  <line x1="175" y1="200" x2="175" y2="220" stroke="black" stroke-dasharray="4" />
  
  <circle cx="185" cy="70" r="2" fill="black"/>
  <text x="195" y="75" font-family="Arial" font-size="12">maxim</text>
  <circle cx="175" cy="200" r="2" fill="black"/>
  <text x="185" y="205" font-family="Arial" font-size="12">minim</text>
  
  <text x="200" y="245" font-family="Arial" font-size="10">0.725</text>
  <text x="175" y="245" font-family="Arial" font-size="10">0.65</text>

  <path d="M 110 70 L 105 70 L 105 200 L 110 200" stroke="black" fill="none" />
  <text x="80" y="135" font-family="Arial" font-size="10">&#916;i<sub>D</sub></text>

</svg>