<svg width="350" height="150" viewBox="0 0 350 150" xmlns="http://www.w3.org/2000/svg">
  <!-- Sursa E1 -->
  <line x1="50" y1="50" x2="50" y2="120" stroke="black" />
  <line x1="40" y1="80" x2="60" y2="80" stroke="black" stroke-width="2"/>
  <line x1="45" y1="85" x2="55" y2="85" stroke="black" stroke-width="3"/>
  <text x="30" y="85" font-family="Arial" font-size="10">E1</text>
  <text x="60" y="75" font-family="Arial" font-size="10">+</text>
  <text x="60" y="95" font-family="Arial" font-size="10">-</text>

  <!-- Linia superioara spre R -->
  <line x1="50" y1="50" x2="80" y2="50" stroke="black" />
  
  <!-- Rezistenta R -->
  <rect x="80" y="45" width="30" height="10" fill="none" stroke="black" />
  <text x="90" y="65" font-family="Arial" font-size="10">R</text>
  
  <!-- Ramificare -->
  <line x1="110" y1="50" x2="130" y2="50" stroke="black" />
  <line x1="130" y1="30" x2="130" y2="70" stroke="black" />
  
  <!-- Curent I_D1 si Sursa VD1 (pentru D1) -->
  <line x1="130" y1="30" x2="140" y2="30" stroke="black" />
  <polygon points="135,27 135,33 140,30" fill="black" />
  <text x="130" y="20" font-family="Arial" font-size="10">I<sub>D1</sub></text>
  
  <line x1="140" y1="30" x2="150" y2="30" stroke="black" />
  <line x1="150" y1="20" x2="150" y2="40" stroke="black" stroke-width="2"/>
  <text x="145" y="15" font-family="Arial" font-size="8">+</text>
  <line x1="155" y1="25" x2="155" y2="35" stroke="black" stroke-width="3"/>
  <text x="160" y="25" font-family="Arial" font-size="10">V<sub>D</sub></text>
  <line x1="155" y1="30" x2="180" y2="30" stroke="black" />

  <!-- D2 (intrerupt) -->
  <line x1="130" y1="70" x2="145" y2="70" stroke="black" />
  <line x1="165" y1="70" x2="180" y2="70" stroke="black" />

  <!-- Unire ramificare -->
  <line x1="180" y1="30" x2="180" y2="70" stroke="black" />
  <line x1="180" y1="50" x2="250" y2="50" stroke="black" />

  <!-- Sursa E2 -->
  <line x1="250" y1="50" x2="250" y2="80" stroke="black" />
  <line x1="240" y1="80" x2="260" y2="80" stroke="black" stroke-width="3"/>
  <line x1="245" y1="85" x2="255" y2="85" stroke="black" stroke-width="2"/>
  <text x="225" y="85" font-family="Arial" font-size="10">E2</text>
  <text x="260" y="75" font-family="Arial" font-size="10">-</text>
  <text x="260" y="95" font-family="Arial" font-size="10">+</text>

  <!-- Linia dreapta de jos -->
  <line x1="250" y1="85" x2="250" y2="120" stroke="black" />
  
  <!-- Linia inferioara -->
  <line x1="50" y1="120" x2="250" y2="120" stroke="black" />

</svg>