<svg style="background:white" width="550" height="300" viewBox="0 0 550 300" xmlns="http://www.w3.org/2000/svg">

<defs>
    <path id="res" d="M 0 0 L 8 0 L 11 -6 L 17 6 L 23 -6 L 29 6 L 32 0 L 40 0" fill="none" stroke="black" stroke-width="2" stroke-linejoin="round"/>
    <g id="batt">
      <line x1="0" y1="0" x2="0" y2="15" stroke="black" stroke-width="2"/>
      <line x1="-15" y1="15" x2="15" y2="15" stroke="black" stroke-width="2"/>
      <line x1="-8" y1="25" x2="8" y2="25" stroke="black" stroke-width="4"/>
      <line x1="0" y1="25" x2="0" y2="40" stroke="black" stroke-width="2"/>
    </g>
    <g id="ammeter">
      <circle cx="20" cy="0" r="14" fill="none" stroke="black" stroke-width="2"/>
      <text x="20" y="5" font-family="sans-serif" font-size="14" font-weight="bold" text-anchor="middle" fill="black">A</text>
      <line x1="0" y1="0" x2="6" y2="0" stroke="black" stroke-width="2"/>
      <line x1="34" y1="0" x2="40" y2="0" stroke="black" stroke-width="2"/>
    </g>
    <g id="gnd">
      <line x1="0" y1="0" x2="0" y2="15" stroke="black" stroke-width="2"/>
      <line x1="-12" y1="15" x2="12" y2="15" stroke="black" stroke-width="2"/>
      <line x1="-8" y1="20" x2="8" y2="20" stroke="black" stroke-width="2"/>
      <line x1="-4" y1="25" x2="4" y2="25" stroke="black" stroke-width="2"/>
    </g>
    <g id="voltmeter">
      <circle cx="20" cy="0" r="14" fill="none" stroke="black" stroke-width="2"/>
      <text x="20" y="5" font-family="sans-serif" font-size="14" font-weight="bold" text-anchor="middle" fill="black">V</text>
      <line x1="0" y1="0" x2="6" y2="0" stroke="black" stroke-width="2"/>
      <line x1="34" y1="0" x2="40" y2="0" stroke="black" stroke-width="2"/>
    </g>
    <g id="ammeter_v">
      <circle cx="0" cy="20" r="14" fill="none" stroke="black" stroke-width="2"/>
      <text x="0" y="25" font-family="sans-serif" font-size="14" font-weight="bold" text-anchor="middle" fill="black">A</text>
      <line x1="0" y1="0" x2="0" y2="6" stroke="black" stroke-width="2"/>
      <line x1="0" y1="34" x2="0" y2="40" stroke="black" stroke-width="2"/>
    </g>
</defs>


  

  <use href="#batt" x="50" y="150"/>
  <text x="15" y="175" font-family="sans-serif" font-size="12" fill="black">V1=12V</text>
  <line x1="50" y1="150" x2="50" y2="100" stroke="black" stroke-width="2"/>
  <line x1="50" y1="100" x2="100" y2="100" stroke="black" stroke-width="2"/>

  <use href="#res" x="100" y="100"/>
  <text x="105" y="125" font-family="sans-serif" font-size="12" fill="black">R1=7Ω</text>

  <line x1="90" y1="100" x2="90" y2="60" stroke="black" stroke-width="2"/>
  <line x1="90" y1="60" x2="100" y2="60" stroke="black" stroke-width="2"/>
  <use href="#voltmeter" x="100" y="60"/>
  <line x1="140" y1="60" x2="150" y2="60" stroke="black" stroke-width="2"/>
  <line x1="150" y1="60" x2="150" y2="100" stroke="black" stroke-width="2"/>

  <line x1="140" y1="100" x2="180" y2="100" stroke="black" stroke-width="2"/>
  <line x1="180" y1="60" x2="180" y2="140" stroke="black" stroke-width="2"/>
  <line x1="180" y1="60" x2="200" y2="60" stroke="black" stroke-width="2"/>
  <line x1="180" y1="100" x2="200" y2="100" stroke="black" stroke-width="2"/>
  <line x1="180" y1="140" x2="200" y2="140" stroke="black" stroke-width="2"/>

  <use href="#res" x="200" y="60"/>
  <text x="205" y="50" font-family="sans-serif" font-size="12" fill="black">R2=5Ω</text>
  <use href="#res" x="200" y="100"/>
  <text x="205" y="90" font-family="sans-serif" font-size="12" fill="black">R3=3Ω</text>
  <use href="#res" x="200" y="140"/>
  <text x="205" y="165" font-family="sans-serif" font-size="12" fill="black">R4=6Ω</text>

  <line x1="240" y1="60" x2="260" y2="60" stroke="black" stroke-width="2"/>
  <line x1="240" y1="100" x2="260" y2="100" stroke="black" stroke-width="2"/>
  <line x1="240" y1="140" x2="260" y2="140" stroke="black" stroke-width="2"/>
  <line x1="260" y1="60" x2="260" y2="140" stroke="black" stroke-width="2"/>

  <line x1="260" y1="100" x2="280" y2="100" stroke="black" stroke-width="2"/>
  <use href="#res" x="280" y="100"/>
  <text x="285" y="125" font-family="sans-serif" font-size="12" fill="black">R5=8Ω</text>
  <line x1="320" y1="100" x2="380" y2="100" stroke="black" stroke-width="2"/>

  <line x1="380" y1="100" x2="380" y2="130" stroke="black" stroke-width="2"/>
  <use href="#ammeter_v" x="380" y="130"/>
  <line x1="380" y1="170" x2="380" y2="240" stroke="black" stroke-width="2"/>

  <line x1="380" y1="240" x2="260" y2="240" stroke="black" stroke-width="2"/>
  <use href="#res" x="220" y="240"/>
  <text x="225" y="265" font-family="sans-serif" font-size="12" fill="black">R6=9Ω</text>
  <line x1="220" y1="240" x2="50" y2="240" stroke="black" stroke-width="2"/>
  <use href="#gnd" x="120" y="240"/>
  <line x1="50" y1="240" x2="50" y2="190" stroke="black" stroke-width="2"/>
</svg>