<svg style="background:white" width="450" height="230" viewBox="0 0 450 230" xmlns="http://www.w3.org/2000/svg">

<defs>
    <path id="res" d="M 0 0 L 8 0 L 11 -6 L 17 6 L 23 -6 L 29 6 L 32 0 L 40 0" fill="none" stroke="black" stroke-width="2" stroke-linejoin="round"/>
    <g id="batt">
      <line x1="0" y1="0" x2="0" y2="15" stroke="black" stroke-width="2"/>
      <line x1="-15" y1="15" x2="15" y2="15" stroke="black" stroke-width="2"/>
      <line x1="-8" y1="25" x2="8" y2="25" stroke="black" stroke-width="4"/>
      <line x1="0" y1="25" x2="0" y2="40" stroke="black" stroke-width="2"/>
    </g>
    <g id="ammeter">
      <circle cx="20" cy="0" r="14" fill="none" stroke="black" stroke-width="2"/>
      <text x="20" y="5" font-family="sans-serif" font-size="14" font-weight="bold" text-anchor="middle" fill="black">A</text>
      <line x1="0" y1="0" x2="6" y2="0" stroke="black" stroke-width="2"/>
      <line x1="34" y1="0" x2="40" y2="0" stroke="black" stroke-width="2"/>
    </g>
    <g id="gnd">
      <line x1="0" y1="0" x2="0" y2="15" stroke="black" stroke-width="2"/>
      <line x1="-12" y1="15" x2="12" y2="15" stroke="black" stroke-width="2"/>
      <line x1="-8" y1="20" x2="8" y2="20" stroke="black" stroke-width="2"/>
      <line x1="-4" y1="25" x2="4" y2="25" stroke="black" stroke-width="2"/>
    </g>
    <g id="voltmeter">
      <circle cx="20" cy="0" r="14" fill="none" stroke="black" stroke-width="2"/>
      <text x="20" y="5" font-family="sans-serif" font-size="14" font-weight="bold" text-anchor="middle" fill="black">V</text>
      <line x1="0" y1="0" x2="6" y2="0" stroke="black" stroke-width="2"/>
      <line x1="34" y1="0" x2="40" y2="0" stroke="black" stroke-width="2"/>
    </g>
    <g id="ammeter_v">
      <circle cx="0" cy="20" r="14" fill="none" stroke="black" stroke-width="2"/>
      <text x="0" y="25" font-family="sans-serif" font-size="14" font-weight="bold" text-anchor="middle" fill="black">A</text>
      <line x1="0" y1="0" x2="0" y2="6" stroke="black" stroke-width="2"/>
      <line x1="0" y1="34" x2="0" y2="40" stroke="black" stroke-width="2"/>
    </g>
</defs>


  

  <use href="#batt" x="50" y="80"/>
  <text x="15" y="105" font-family="sans-serif" font-size="12" fill="black">V1=12V</text>
  <line x1="50" y1="80" x2="50" y2="50" stroke="black" stroke-width="2"/>
  <line x1="50" y1="50" x2="100" y2="50" stroke="black" stroke-width="2"/>

  <use href="#res" x="100" y="50"/>
  <text x="105" y="40" font-family="sans-serif" font-size="12" fill="black">R1=10Ω</text>

  <line x1="140" y1="50" x2="180" y2="50" stroke="black" stroke-width="2"/>
  <use href="#res" x="180" y="50"/>
  <text x="185" y="40" font-family="sans-serif" font-size="12" fill="black">R2=20Ω</text>
  <line x1="220" y1="50" x2="250" y2="50" stroke="black" stroke-width="2"/>

  <line x1="250" y1="30" x2="250" y2="70" stroke="black" stroke-width="2"/>
  <line x1="250" y1="30" x2="270" y2="30" stroke="black" stroke-width="2"/>
  <line x1="250" y1="70" x2="270" y2="70" stroke="black" stroke-width="2"/>

  <use href="#res" x="270" y="30"/>
  <text x="275" y="20" font-family="sans-serif" font-size="12" fill="black">R3=20Ω</text>
  <use href="#res" x="270" y="70"/>
  <text x="275" y="95" font-family="sans-serif" font-size="12" fill="black">R4=20Ω</text>

  <line x1="310" y1="30" x2="330" y2="30" stroke="black" stroke-width="2"/>
  <line x1="310" y1="70" x2="330" y2="70" stroke="black" stroke-width="2"/>
  <line x1="330" y1="30" x2="330" y2="70" stroke="black" stroke-width="2"/>
  <line x1="330" y1="50" x2="380" y2="50" stroke="black" stroke-width="2"/>

  <line x1="380" y1="50" x2="380" y2="170" stroke="black" stroke-width="2"/>
  <line x1="380" y1="170" x2="250" y2="170" stroke="black" stroke-width="2"/>

  <use href="#ammeter" x="210" y="170"/>
  <text x="200" y="200" font-family="sans-serif" font-size="12" fill="black">Ampermetru</text>

  <line x1="210" y1="170" x2="50" y2="170" stroke="black" stroke-width="2"/>
  <use href="#gnd" x="140" y="170"/>
  <line x1="50" y1="170" x2="50" y2="120" stroke="black" stroke-width="2"/>
</svg>